<svg width="16" height="16" viewBox="0 0 16 16" fill="none" xmlns="http://www.w3.org/2000/svg">
<path d="M10.7352 9.51446L8.65796 7.95654V4.78303C8.65796 4.46394 8.40003 4.20601 8.08094 4.20601C7.76185 4.20601 7.50393 4.46394 7.50393 4.78303V8.24508C7.50393 8.42682 7.58933 8.59821 7.73473 8.70669L10.0427 10.4377C10.1466 10.5156 10.2678 10.5531 10.3884 10.5531C10.5644 10.5531 10.7375 10.4741 10.8506 10.3217C11.0422 10.0672 10.9902 9.70546 10.7352 9.51446Z" fill="#CB3B48"/>
<path d="M8.08098 0.749756C3.97327 0.749756 0.631836 4.09119 0.631836 8.19889C0.631836 12.3066 3.97327 15.648 8.08098 15.648C12.1887 15.648 15.5301 12.3066 15.5301 8.19889C15.5301 4.09119 12.1887 0.749756 8.08098 0.749756ZM8.08098 14.494C4.61029 14.494 1.78584 11.6696 1.78584 8.19889C1.78584 4.72821 4.61029 1.90376 8.08098 1.90376C11.5522 1.90376 14.3761 4.72821 14.3761 8.19889C14.3761 11.6696 11.5517 14.494 8.08098 14.494Z" fill="#CB3B48"/>
</svg>
