<svg width="11" height="13" viewBox="0 0 11 13" fill="none" xmlns="http://www.w3.org/2000/svg">
<path d="M6.50776 6.5001L10.7909 1.4379C11.0697 1.10862 11.0697 0.576231 10.7909 0.246956C10.5123 -0.0823187 10.0619 -0.0823187 9.78324 0.246956L5.49993 5.30915L1.21676 0.246956C0.938014 -0.0823187 0.487668 -0.0823187 0.209057 0.246956C-0.0696855 0.576231 -0.0696855 1.10862 0.209057 1.4379L4.49224 6.5001L0.209057 11.5623C-0.0696855 11.8916 -0.0696855 12.424 0.209057 12.7532C0.347906 12.9175 0.530471 13 0.712906 13C0.895341 13 1.07778 12.9175 1.21676 12.7532L5.49993 7.69104L9.78324 12.7532C9.92222 12.9175 10.1047 13 10.2871 13C10.4695 13 10.652 12.9175 10.7909 12.7532C11.0697 12.424 11.0697 11.8916 10.7909 11.5623L6.50776 6.5001Z" fill="white"/>
</svg>
